<svg width="192" height="192" viewBox="0 0 24 24" fill="none" xmlns="http://www.w3.org/2000/svg">
<path d="M12 2C6.48 2 2 6.48 2 12C2 17.52 6.48 22 12 22C17.52 22 22 17.52 22 12C22 6.48 17.52 2 12 2ZM12 20C7.58 20 4 16.42 4 12C4 7.58 7.58 4 12 4C16.42 4 20 7.58 20 12C20 16.42 16.42 20 12 20Z" fill="url(#paint0_linear_8_2)"/>
<path d="M12 17.5C14.07 17.5 15.84 16.47 16.82 14.88C17.03 14.54 16.78 14.08 16.38 14.08H7.62C7.22 14.08 6.97 14.54 7.18 14.88C8.16 16.47 9.93 17.5 12 17.5Z" fill="url(#paint1_linear_8_2)" opacity="0.5"/>
<path d="M9 10.5C9.83 10.5 10.5 9.83 10.5 9C10.5 8.17 9.83 7.5 9 7.5C8.17 7.5 7.5 8.17 7.5 9C7.5 9.83 8.17 10.5 9 10.5Z" fill="url(#paint2_linear_8_2)"/>
<path d="M15 10.5C15.83 10.5 16.5 9.83 16.5 9C16.5 8.17 15.83 7.5 15 7.5C14.17 7.5 13.5 8.17 13.5 9C13.5 9.83 14.17 10.5 15 10.5Z" fill="url(#paint3_linear_8_2)"/>
<defs>
<linearGradient id="paint0_linear_8_2" x1="2" y1="12" x2="22" y2="12" gradientUnits="userSpaceOnUse">
<stop stop-color="#22d3ee"/>
<stop offset="1" stop-color="#a5b4fc"/>
</linearGradient>
<linearGradient id="paint1_linear_8_2" x1="7.18" y1="15.79" x2="16.82" y2="15.79" gradientUnits="userSpaceOnUse">
<stop stop-color="#0ea5e9"/>
<stop offset="1" stop-color="#6366f1"/>
</linearGradient>
<linearGradient id="paint2_linear_8_2" x1="7.5" y1="9" x2="10.5" y2="9" gradientUnits="userSpaceOnUse">
<stop stop-color="#0ea5e9"/>
<stop offset="1" stop-color="#6366f1"/>
</linearGradient>
<linearGradient id="paint3_linear_8_2" x1="13.5" y1="9" x2="16.5" y2="9" gradientUnits="userSpaceOnUse">
<stop stop-color="#0ea5e9"/>
<stop offset="1" stop-color="#6366f1"/>
</linearGradient>
</defs>
</svg>
