<svg width="192" height="192" viewBox="0 0 24 24" fill="none" xmlns="http://www.w3.org/2000/svg">
<path d="M12 2C6.48 2 2 6.48 2 12C2 17.52 6.48 22 12 22C17.52 22 22 17.52 22 12C22 6.48 17.52 2 12 2ZM12 20C7.58 20 4 16.42 4 12C4 7.58 7.58 4 12 4C16.42 4 20 7.58 20 12C20 16.42 16.42 20 12 20Z" fill="hsl(var(--muted))"/>
<path d="M15.5 10.5C15.5 9.67 14.83 9 14 9H13V8C13 7.45 12.55 7 12 7C11.45 7 11 7.45 11 8V9H10C9.17 9 8.5 9.67 8.5 10.5C8.5 11.33 9.17 12 10 12H11V14H10C9.45 14 9 14.45 9 15C9 15.55 9.45 16 10 16H11V17C11 17.55 11.45 18 12 18C12.55 18 13 17.55 13 17V16H14C14.83 16 15.5 15.33 15.5 14.5C15.5 13.67 14.83 13 14 13H13V12H14C14.83 12 15.5 11.33 15.5 10.5Z" fill="hsl(var(--primary))"/>
<path d="M7 10C7.55228 10 8 9.55228 8 9C8 8.44772 7.55228 8 7 8C6.44772 8 6 8.44772 6 9C6 9.55228 6.44772 10 7 10Z" fill="hsl(var(--primary))" opacity="0.6"/>
<path d="M17 10C17.5523 10 18 9.55228 18 9C18 8.44772 17.5523 8 17 8C16.4477 8 16 8.44772 16 9C16 9.55228 16.4477 10 17 10Z" fill="hsl(var(--primary))" opacity="0.6"/>
<path d="M7 16C7.55228 16 8 15.5523 8 15C8 14.4477 7.55228 14 7 14C6.44772 14 6 14.4477 6 15C6 15.5523 6.44772 16 7 16Z" fill="hsl(var(--primary))" opacity="0.6"/>
<path d="M17 16C17.5523 16 18 15.5523 18 15C18 14.4477 17.5523 14 17 14C16.4477 14 16 14.4477 16 15C16 15.5523 16.4477 16 17 16Z" fill="hsl(var(--primary))" opacity="0.g"/>
</svg>
